# xmcd
#
# Track frame offsets:
#	150
#	17906
#	32269
#	44503
#	56785
#	65097
#	74832
#	84991
#	94761
#	108544
#	120755
#	134813
#	146403
#	156390
#	168216
#	180673
#	190488
#
# Disc length: 2684
#
# Revision: 4
# Processed by: cddbd v1.5.1PL0 Copyright (c) Steve Scherf et al.
# Submitted via: CDex 1.50
# Normalized: r2:TRMNUM;r3:TDELIM( - )
#
DISCID=f70a7a11
DTITLE=Various Artist - Truck-Driving Songs CD 3
DYEAR=2002
DGENRE=Country
TTITLE0=Ferlin Husky - Convoy
TTITLE1=Johhny Chester - Once I Was A Truck Driving Man
TTITLE2=Merle Haggard - Working Man Blues
TTITLE3=Lee Conway - Me And Bobby McGee
TTITLE4=Johhny Cash - Guess Things Happen That Way
TTITLE5=Ned Miller - From A Jack To A King
TTITLE6=Porter Wayoner - The Green Green Grass Of Home
TTITLE7=Waylon Jennings - White Lightning
TTITLE8=George Jones - A Good Year For The Roses
TTITLE9=Jack Blanchard And Misty Morgan - Tennessee Bird Walk
TTITLE10=Lacy J Dalton - 16th Avenue
TTITLE11=Donna Fargo - The Happiest Girl In The Whole USA
TTITLE12=Don Gibson - Lonesome Number One
TTITLE13=Bonnie Guitar - Dark Moon
TTITLE14=Wanda Jackson - Crazy
TTITLE15=Claude King - The Comancheros
TTITLE16=Hank Locklin - Send Me The Pillow You Dream On
EXTD=YEAR: 2002
EXTT0=
EXTT1=
EXTT2=
EXTT3=
EXTT4=
EXTT5=
EXTT6=
EXTT7=
EXTT8=
EXTT9=
EXTT10=
EXTT11=
EXTT12=
EXTT13=
EXTT14=
EXTT15=
EXTT16=
PLAYORDER=
